<svg xmlns="http://www.w3.org/2000/svg" width="215" height="33" viewBox="0 0 215 33" fill="none"><path d="M50.2348 27.5695C48.033 27.5695 46.1647 27.0829 44.6302 26.1097C43.0896 25.1319 41.8701 23.7236 41.1229 22.0593C40.2872 20.171 39.8757 18.1225 39.9176 16.0581C39.876 13.9945 40.2875 11.9469 41.1229 10.0595C41.8709 8.39501 43.0902 6.986 44.6302 6.00649C46.1665 5.03504 48.0347 4.54932 50.2348 4.54932C52.7907 4.54932 54.8961 5.19872 56.551 6.49753C58.2263 7.83305 59.4241 9.67491 59.9653 11.7476L57.1882 12.4749C56.8163 10.9542 55.9724 9.5902 54.7775 8.57845C53.6199 7.63708 52.1057 7.16639 50.2348 7.16639C48.5852 7.16639 47.2135 7.53975 46.1196 8.28648C45.0047 9.06162 44.1446 10.1496 43.6478 11.4132C43.0681 12.8959 42.7813 14.4769 42.8035 16.0687C42.7652 17.6522 43.0422 19.2275 43.6186 20.703C44.1166 21.971 44.9819 23.0616 46.1037 23.835C47.2099 24.5782 48.587 24.9498 50.2348 24.9498C52.1057 24.9498 53.6199 24.4711 54.7775 23.5138C55.9661 22.5066 56.8092 21.1523 57.1882 19.6413L59.9653 20.3765C59.4189 22.4432 58.2218 24.2793 56.551 25.6133C54.8978 26.9174 52.7924 27.5695 50.2348 27.5695Z" fill="white"></path><path d="M66.5204 27.5698C65.443 27.6068 64.3736 27.3712 63.4115 26.885C62.6244 26.4749 61.9698 25.8499 61.5238 25.0828C61.1303 24.3627 60.9127 23.5598 60.8887 22.7397C60.8647 21.9196 61.035 21.1054 61.3857 20.3635C61.7177 19.7266 62.1997 19.18 62.7902 18.771C63.4515 18.3194 64.1825 17.9796 64.954 17.765C65.8286 17.5322 66.7148 17.3452 67.609 17.205C68.586 17.0457 69.5737 16.9024 70.5772 16.767C71.5808 16.6317 72.518 16.5016 73.3862 16.3848L72.4039 16.9528C72.4357 15.4806 72.1419 14.3906 71.5224 13.6828C70.9012 12.9768 69.8365 12.6211 68.3205 12.6211C67.3969 12.6005 66.4857 12.8376 65.6894 13.3059C64.8965 13.8159 64.327 14.6082 64.0964 15.5222L61.5025 14.7392C61.8516 13.3631 62.6716 12.1526 63.8203 11.3179C64.9655 10.4969 66.4744 10.0863 68.3471 10.0863C69.6807 10.0493 71.0048 10.3219 72.2154 10.8826C73.2603 11.385 74.0869 12.25 74.5411 13.3165C74.7797 13.843 74.9295 14.4054 74.9845 14.9807C75.0486 15.6051 75.0796 16.2323 75.0774 16.8599V27.1106H72.6534V23.1292L73.2216 23.4982C72.6792 24.75 71.7738 25.8105 70.6224 26.5426C69.4949 27.2292 68.1276 27.5716 66.5204 27.5698ZM66.9346 25.2818C67.8163 25.3028 68.691 25.1212 69.4914 24.751C70.1727 24.4287 70.7692 23.9515 71.233 23.3575C71.6625 22.8008 71.9569 22.1521 72.0932 21.4624C72.2517 20.9052 72.3365 20.3296 72.3455 19.7504C72.3614 19.1222 72.3693 18.6392 72.3693 18.3012L73.3198 18.7153L70.6967 19.0683C69.8365 19.1797 69.0223 19.3001 68.2541 19.4292C67.5561 19.5419 66.8648 19.6925 66.1833 19.8805C65.7428 20.0215 65.3183 20.2083 64.9168 20.4379C64.5367 20.6502 64.2105 20.9471 63.9637 21.3058C63.7133 21.6962 63.5874 22.1535 63.6026 22.617C63.6035 23.07 63.7234 23.5148 63.9504 23.9069C64.1997 24.3359 64.5688 24.6827 65.0124 24.9049C65.6135 25.1833 66.2729 25.3126 66.9346 25.2818Z" fill="white"></path><path d="M77.5412 27.1078V10.5347H79.9812V14.54L79.5829 14.0091C79.773 13.5081 80.0283 13.0342 80.3422 12.5997C80.9819 11.7504 81.8544 11.105 82.8538 10.7418C83.389 10.5591 83.9461 10.4484 84.5105 10.4127C85.0443 10.3729 85.5809 10.4113 86.1035 10.5268V13.0908C85.4865 12.9333 84.8456 12.891 84.2132 12.966C83.5193 13.041 82.8591 13.3044 82.3043 13.7278C81.7896 14.0848 81.3658 14.5576 81.067 15.108C80.7724 15.6575 80.568 16.2508 80.4617 16.8651C80.3474 17.501 80.2905 18.146 80.2918 18.7921V27.1078H77.5412Z" fill="white"></path><path d="M94.3499 27.5695C92.8616 27.6028 91.3926 27.2283 90.1019 26.4866C88.8862 25.7692 87.8999 24.7206 87.2585 23.4634C86.5572 22.057 86.2091 20.501 86.2442 18.93C86.2031 17.3056 86.5451 15.6944 87.2425 14.2267C87.8554 12.954 88.8224 11.885 90.0276 11.1478C91.3026 10.4127 92.7565 10.0452 94.2278 10.0861C95.8951 10.0861 97.3111 10.4692 98.4757 11.2354C99.6725 12.0328 100.595 13.1791 101.117 14.5187C101.705 15.9342 101.958 17.6276 101.877 19.5989H99.1235V18.6062C99.0935 16.5713 98.6793 15.0495 97.881 14.0409C97.0828 13.0323 95.8951 12.5289 94.318 12.5306C92.6295 12.5306 91.3453 13.073 90.4657 14.1577C89.586 15.2424 89.1435 16.7969 89.1382 18.8212C89.1382 20.7676 89.5807 22.2823 90.4657 23.3652C91.3507 24.4481 92.6047 24.9852 94.2278 24.9763C95.2313 24.9998 96.2209 24.7384 97.0819 24.2225C97.9119 23.7002 98.5731 22.9489 98.9855 22.0593L101.611 22.9644C101.012 24.372 99.992 25.5596 98.6908 26.3645C97.3868 27.1683 95.8817 27.5861 94.3499 27.5695ZM88.2249 19.5882V17.3958H100.475V19.5882H88.2249Z" fill="white"></path><path d="M112.837 27.5695C110.635 27.5695 108.766 27.0829 107.232 26.1097C105.691 25.1327 104.472 23.7241 103.727 22.0593C102.89 20.1714 102.479 18.1226 102.522 16.0581C102.479 13.9944 102.89 11.9464 103.727 10.0595C104.473 8.39461 105.692 6.98532 107.232 6.00649C108.77 5.03504 110.638 4.54932 112.837 4.54932C115.035 4.54932 116.907 5.03504 118.454 6.00649C119.998 6.98248 121.219 8.39244 121.964 10.0595C122.796 11.9479 123.205 13.9952 123.162 16.0581C123.205 18.1218 122.796 20.17 121.964 22.0593C121.223 23.7246 120.005 25.1338 118.465 26.1097C116.93 27.0847 115.054 27.5713 112.837 27.5695ZM112.837 24.9498C114.483 24.9604 115.856 24.5897 116.957 23.8376C118.08 23.0646 118.944 21.9726 119.439 20.703C120.015 19.2232 120.297 17.6456 120.27 16.0581C120.299 14.4704 120.017 12.8924 119.439 11.4132C118.947 10.1501 118.086 9.06441 116.968 8.2971C115.868 7.54329 114.491 7.16639 112.837 7.16639C111.182 7.16639 109.812 7.53445 108.729 8.27055C107.617 9.04885 106.76 10.1385 106.265 11.4026C105.686 12.8882 105.399 14.4717 105.421 16.066C105.383 17.6514 105.664 19.2282 106.247 20.703C106.746 21.9655 107.608 23.0518 108.724 23.8244C109.827 24.5746 111.198 24.9498 112.837 24.9498Z" fill="white"></path><path d="M124.683 27.1079V10.5349H127.139V14.9701H127.439V27.1079H124.683ZM136.5 27.1079V18.8055C136.503 18.0442 136.433 17.2844 136.293 16.5361C136.17 15.8469 135.926 15.1848 135.574 14.5799C135.239 14.0101 134.762 13.5365 134.191 13.205C133.519 12.8447 132.764 12.6697 132.003 12.6981C131.367 12.6908 130.735 12.808 130.144 13.0431C129.587 13.2763 129.094 13.6405 128.708 14.1048C128.282 14.6269 127.967 15.2301 127.781 15.8778C127.544 16.6896 127.428 17.5323 127.439 18.3781L125.644 17.8234C125.606 16.3964 125.903 14.9802 126.51 13.6881C127.047 12.5836 127.896 11.6608 128.952 11.0339C130.084 10.3928 131.369 10.0717 132.669 10.1049C133.606 10.0833 134.538 10.2578 135.404 10.6171C136.122 10.9208 136.768 11.3731 137.299 11.9443C137.797 12.496 138.197 13.1289 138.481 13.8155C138.764 14.4934 138.968 15.2013 139.089 15.9256C139.202 16.5931 139.261 17.2686 139.264 17.9455V27.1053L136.5 27.1079Z" fill="white"></path><path d="M141.704 27.1077V5.01123H144.452V14.9089H144.147V27.1184L141.704 27.1077ZM149.334 27.5696C147.779 27.5696 146.469 27.1829 145.405 26.4097C144.319 25.6097 143.481 24.5195 142.986 23.2644C142.422 21.8465 142.143 20.3312 142.166 18.8053C142.142 17.275 142.421 15.7551 142.986 14.3329C143.479 13.0835 144.322 12.0025 145.413 11.2195C146.475 10.4604 147.788 10.0817 149.35 10.0835C150.759 10.0461 152.144 10.4447 153.317 11.2248C154.441 12.0041 155.326 13.0801 155.874 14.3329C156.484 15.7409 156.787 17.2629 156.763 18.7973C156.788 20.3326 156.485 21.8555 155.874 23.2644C155.326 24.5255 154.442 25.6111 153.317 26.4017C152.144 27.1967 150.751 27.6051 149.334 27.5696ZM148.997 25.0666C149.97 25.1045 150.927 24.8127 151.713 24.2385C152.452 23.6562 153.011 22.8768 153.325 21.9904C153.694 20.9698 153.874 19.8904 153.856 18.8053C153.871 17.7282 153.691 16.6573 153.325 15.6441C153.01 14.7558 152.445 13.9777 151.697 13.4039C150.886 12.8272 149.907 12.536 148.912 12.5758C147.959 12.5399 147.02 12.8198 146.241 13.3721C145.506 13.9309 144.951 14.6945 144.648 15.5671C144.28 16.6081 144.1 17.7065 144.117 18.8106C144.11 19.9071 144.293 20.9965 144.659 22.0302C144.957 22.9141 145.512 23.6892 146.252 24.2571C147.053 24.8216 148.018 25.1062 148.997 25.0666Z" fill="white"></path><path d="M165.671 27.5692C164.177 27.6067 162.703 27.2182 161.423 26.4491C160.224 25.7026 159.262 24.63 158.651 23.357C157.984 21.9365 157.653 20.3817 157.684 18.8129C157.649 17.2326 157.985 15.6661 158.667 14.2397C159.281 12.9756 160.245 11.9138 161.444 11.1793C162.744 10.4592 164.207 10.0827 165.694 10.0855C167.181 10.0883 168.642 10.4702 169.94 11.1953C171.137 11.9361 172.094 13.0072 172.696 14.2795C173.358 15.6973 173.687 17.2482 173.657 18.8129C173.69 20.389 173.358 21.9514 172.688 23.3782C172.083 24.651 171.124 25.7227 169.926 26.4651C168.64 27.225 167.165 27.6077 165.671 27.5692ZM165.671 24.976C167.391 24.976 168.671 24.4027 169.51 23.2561C170.349 22.1095 170.768 20.6258 170.768 18.8049C170.768 16.9346 170.343 15.4438 169.494 14.3326C168.644 13.2213 167.37 12.6666 165.671 12.6684C164.659 12.6304 163.662 12.9087 162.816 13.4646C162.056 14.0034 161.474 14.7565 161.144 15.6278C160.759 16.6447 160.571 17.7258 160.592 18.8129C160.592 20.6762 161.021 22.1705 161.879 23.2959C162.738 24.4213 164.001 24.9814 165.671 24.976Z" fill="white"></path><path d="M180.217 27.5699C179.141 27.6065 178.072 27.371 177.111 26.8851C176.325 26.4746 175.673 25.8496 175.228 25.0829C174.837 24.3622 174.62 23.5596 174.596 22.7397C174.572 21.9199 174.741 21.1059 175.09 20.3636C175.423 19.7272 175.905 19.1808 176.495 18.7711C177.157 18.3195 177.889 17.9797 178.661 17.7651C179.536 17.5322 180.422 17.3452 181.316 17.2051C182.293 17.0458 183.284 16.9025 184.287 16.7671C185.291 16.6318 186.225 16.5017 187.096 16.3849L186.114 16.9529C186.142 15.4807 185.847 14.3907 185.23 13.6829C184.612 12.9751 183.546 12.6212 182.031 12.6212C181.106 12.6006 180.194 12.8378 179.397 13.306C178.645 13.7608 178.114 14.4995 177.804 15.5223L175.21 14.7393C175.557 13.3623 176.377 12.1512 177.528 11.318C178.671 10.4899 180.176 10.0758 182.041 10.0758C183.377 10.0375 184.704 10.3101 185.917 10.8721C186.963 11.3756 187.788 12.2442 188.238 13.314C188.479 13.8399 188.629 14.4024 188.684 14.9782C188.747 15.6026 188.778 16.2298 188.777 16.8574V27.108H186.35V23.1267L186.918 23.4956C186.374 24.7504 185.465 25.8122 184.308 26.5427C183.188 27.2292 181.824 27.5716 180.217 27.5699ZM180.631 25.2819C181.513 25.3032 182.388 25.1216 183.188 24.7511C183.87 24.4304 184.467 23.9529 184.93 23.3576C185.36 22.8015 185.655 22.1526 185.79 21.4625C185.956 20.9065 186.045 20.3305 186.055 19.7505C186.071 19.1223 186.079 18.6393 186.079 18.3013L187.032 18.7153L184.407 19.0684C183.546 19.1798 182.733 19.3002 181.967 19.4293C181.268 19.5417 180.576 19.6923 179.893 19.8805C179.449 20.0218 179.02 20.2086 178.614 20.4379C178.234 20.6503 177.909 20.9473 177.663 21.3059C177.411 21.6958 177.285 22.1534 177.302 22.6171C177.302 23.0699 177.421 23.5147 177.647 23.907C177.897 24.3357 178.266 24.6824 178.709 24.905C179.31 25.1838 179.97 25.3131 180.631 25.2819Z" fill="white"></path><path d="M191.241 27.1078V10.5347H193.681V14.54L193.282 14.0091C193.471 13.5076 193.727 13.0336 194.042 12.5997C194.334 12.1892 194.693 11.8304 195.104 11.538C195.538 11.188 196.032 10.9184 196.561 10.7418C197.096 10.5591 197.654 10.4484 198.218 10.4127C198.752 10.3729 199.288 10.4113 199.811 10.5268V13.0908C199.195 12.9334 198.555 12.8911 197.923 12.966C197.232 13.0405 196.574 13.301 196.02 13.7198C195.506 14.077 195.083 14.5497 194.785 15.1C194.491 15.6499 194.285 16.243 194.177 16.8571C194.065 17.4933 194.009 18.1381 194.01 18.7841V27.0998L191.241 27.1078Z" fill="white"></path><path d="M207.372 27.5696C205.956 27.6098 204.563 27.204 203.39 26.4097C202.266 25.6175 201.382 24.5323 200.833 23.2724C200.216 21.8653 199.91 20.3415 199.936 18.8053C199.911 17.2667 200.22 15.741 200.841 14.3329C201.389 13.0757 202.274 11.9945 203.398 11.2089C204.569 10.4352 205.951 10.043 207.354 10.0861C208.92 10.0861 210.235 10.4648 211.299 11.2221C212.389 12.0053 213.231 13.0851 213.726 14.3329C214.292 15.7576 214.571 17.2803 214.546 18.8133C214.568 20.3365 214.289 21.849 213.726 23.2644C213.232 24.5195 212.393 25.6097 211.307 26.4097C210.24 27.1829 208.928 27.5696 207.372 27.5696ZM207.709 25.0666C208.688 25.1099 209.654 24.8301 210.457 24.2704C211.197 23.7017 211.751 22.9268 212.05 22.0435C212.408 21.0047 212.581 19.9116 212.563 18.8133C212.583 17.7104 212.41 16.6126 212.05 15.5698C211.754 14.6986 211.206 13.9348 210.476 13.3747C209.692 12.8209 208.748 12.541 207.789 12.5785C206.795 12.5382 205.815 12.8295 205.004 13.4066C204.255 13.9789 203.688 14.7561 203.371 15.6441C203.005 16.6573 202.826 17.7282 202.84 18.8053C202.822 19.8904 203.002 20.9698 203.371 21.9904C203.686 22.8784 204.248 23.6582 204.991 24.2385C205.778 24.8127 206.736 25.1044 207.709 25.0666ZM212.56 27.1077V14.8983H212.255V5.01123H215V27.1077H212.56Z" fill="white"></path><path d="M23.0372 26.038H18.8503C17.4228 26.041 16.0514 25.4823 15.0325 24.4827L13.8961 23.3573L12.7439 24.48C11.7277 25.4792 10.3593 26.0388 8.934 26.038H4.75241C3.49242 26.0366 2.28445 25.5356 1.3935 24.6449C0.502555 23.7542 0.00140545 22.5466 0 21.287L0 4.75108C0.00140545 3.49145 0.502555 2.28381 1.3935 1.39311C2.28445 0.502415 3.49242 0.00140506 4.75241 0L23.0372 0C24.2972 0.00140506 25.5052 0.502415 26.3961 1.39311C27.2871 2.28381 27.7882 3.49145 27.7896 4.75108V21.287C27.7882 22.5466 27.2871 23.7542 26.3961 24.6449C25.5052 25.5356 24.2972 26.0366 23.0372 26.038ZM16.0095 21.2976L17.106 22.3593C17.5686 22.8231 18.1952 23.0863 18.8503 23.0918H23.0372C23.5135 23.0911 23.97 22.9015 24.3065 22.5646C24.643 22.2277 24.832 21.771 24.832 21.2949V4.75108C24.832 4.27521 24.6429 3.81884 24.3063 3.48235C23.9697 3.14586 23.5132 2.95682 23.0372 2.95682H4.75241C4.27641 2.95682 3.8199 3.14586 3.48332 3.48235C3.14673 3.81884 2.95764 4.27521 2.95764 4.75108V21.287C2.9566 21.5234 3.00223 21.7577 3.09192 21.9764C3.18161 22.1952 3.31361 22.3941 3.48033 22.5618C3.64706 22.7295 3.84525 22.8626 4.06354 22.9535C4.28182 23.0445 4.51592 23.0915 4.75241 23.0918H8.934C9.59049 23.093 10.221 22.8355 10.6889 22.3752L11.7801 21.3135L6.47018 16.1112C5.39585 15.0851 4.74757 13.692 4.65445 12.2095C4.56132 10.727 5.03019 9.26386 5.96766 8.11143C6.90513 6.95899 8.24242 6.20186 9.71319 5.99083C11.184 5.7798 12.6803 6.13035 13.9041 6.97268C15.1281 6.12653 16.6263 5.77314 18.0995 5.98307C19.5727 6.19299 20.9124 6.9508 21.8512 8.10512C22.7899 9.25944 23.2585 10.7253 23.1634 12.21C23.0683 13.6946 22.4164 15.0887 21.338 16.1139L21.2611 16.1882L16.0095 21.2976ZM10.5403 8.87311C10.4392 8.87312 10.3381 8.87844 10.2376 8.88903C9.57604 8.96378 8.95848 9.25754 8.48316 9.72359C8.00785 10.1896 7.70207 10.8012 7.61447 11.461C7.55556 11.9176 7.60462 12.3817 7.75771 12.816C7.91079 13.2502 8.16364 13.6425 8.49592 13.9613L8.57823 14.0409L13.8882 19.2299L19.2804 13.9639C19.6158 13.6463 19.8717 13.2542 20.0276 12.8194C20.1835 12.3846 20.235 11.9193 20.1778 11.461C20.0902 10.8012 19.7844 10.1896 19.3091 9.72359C18.8338 9.25754 18.2163 8.96378 17.5547 8.88903C16.7823 8.80351 16.0073 9.02677 15.3989 9.51013C14.9686 9.85317 14.4345 10.04 13.8842 10.04C13.3339 10.04 12.7998 9.85317 12.3695 9.51013C11.8491 9.0976 11.2044 8.87311 10.5403 8.87311Z" fill="#00B4B8"></path><path d="M26.3108 32.1165H1.47882C1.08661 32.1165 0.71047 31.9607 0.433137 31.6835C0.155804 31.4062 0 31.0302 0 30.6381C0 30.246 0.155804 29.8699 0.433137 29.5927C0.71047 29.3154 1.08661 29.1597 1.47882 29.1597H26.3108C26.703 29.1597 27.0792 29.3154 27.3565 29.5927C27.6338 29.8699 27.7896 30.246 27.7896 30.6381C27.7896 31.0302 27.6338 31.4062 27.3565 31.6835C27.0792 31.9607 26.703 32.1165 26.3108 32.1165Z" fill="#00B4B8"></path></svg>